<mxfile host="Electron" modified="2023-08-13T14:09:16.316Z" agent="Mozilla/5.0 (Windows NT 10.0; Win64; x64) AppleWebKit/537.36 (KHTML, like Gecko) draw.io/21.6.8 Chrome/114.0.5735.289 Electron/25.5.0 Safari/537.36" etag="-xz1PfDV2QBiOBVv1tbS" version="21.6.8" type="device">
  <diagram id="prtHgNgQTEPvFCAcTncT" name="Page-1">
    <mxGraphModel dx="1706" dy="997" grid="1" gridSize="10" guides="1" tooltips="1" connect="1" arrows="1" fold="1" page="1" pageScale="1" pageWidth="827" pageHeight="1169" math="0" shadow="0">
      <root>
        <mxCell id="0" />
        <mxCell id="1" parent="0" />
        <mxCell id="dNxyNK7c78bLwvsdeMH5-19" value="NOCLINE" style="swimlane;html=1;childLayout=stackLayout;resizeParent=1;resizeParentMax=0;horizontal=0;startSize=20;horizontalStack=0;container=0;" parent="1" vertex="1">
          <mxGeometry x="30" y="100" width="1480" height="746" as="geometry" />
        </mxCell>
        <mxCell id="dNxyNK7c78bLwvsdeMH5-20" value="USER&lt;br&gt;" style="swimlane;html=1;startSize=20;horizontal=0;" parent="1" vertex="1">
          <mxGeometry x="50" y="100" width="1460" height="300" as="geometry" />
        </mxCell>
        <mxCell id="NhT25dJwAbogH1QGbK4u-51" value="" style="edgeStyle=orthogonalEdgeStyle;rounded=0;orthogonalLoop=1;jettySize=auto;html=1;" parent="dNxyNK7c78bLwvsdeMH5-20" source="NhT25dJwAbogH1QGbK4u-47" target="NhT25dJwAbogH1QGbK4u-50" edge="1">
          <mxGeometry relative="1" as="geometry" />
        </mxCell>
        <mxCell id="NhT25dJwAbogH1QGbK4u-47" value="" style="rounded=0;whiteSpace=wrap;html=1;" parent="dNxyNK7c78bLwvsdeMH5-20" vertex="1">
          <mxGeometry x="170" y="120" width="120" height="60" as="geometry" />
        </mxCell>
        <mxCell id="NhT25dJwAbogH1QGbK4u-48" value="Cliente compra a passagem" style="text;html=1;strokeColor=none;fillColor=none;align=center;verticalAlign=middle;whiteSpace=wrap;rounded=0;" parent="dNxyNK7c78bLwvsdeMH5-20" vertex="1">
          <mxGeometry x="180" y="135" width="100" height="30" as="geometry" />
        </mxCell>
        <mxCell id="NhT25dJwAbogH1QGbK4u-50" value="" style="whiteSpace=wrap;html=1;rounded=0;" parent="dNxyNK7c78bLwvsdeMH5-20" vertex="1">
          <mxGeometry x="354" y="120" width="120" height="60" as="geometry" />
        </mxCell>
        <mxCell id="NhT25dJwAbogH1QGbK4u-52" value="Cliente faz o uso do metrô" style="text;html=1;strokeColor=none;fillColor=none;align=center;verticalAlign=middle;whiteSpace=wrap;rounded=0;" parent="dNxyNK7c78bLwvsdeMH5-20" vertex="1">
          <mxGeometry x="374" y="135" width="80" height="30" as="geometry" />
        </mxCell>
        <mxCell id="Men9GjwN1sTNMA3EWKFs-29" value="" style="edgeStyle=orthogonalEdgeStyle;rounded=0;orthogonalLoop=1;jettySize=auto;html=1;" edge="1" parent="dNxyNK7c78bLwvsdeMH5-20" source="NhT25dJwAbogH1QGbK4u-62" target="Men9GjwN1sTNMA3EWKFs-28">
          <mxGeometry relative="1" as="geometry" />
        </mxCell>
        <mxCell id="NhT25dJwAbogH1QGbK4u-62" value="" style="rounded=0;whiteSpace=wrap;html=1;" parent="dNxyNK7c78bLwvsdeMH5-20" vertex="1">
          <mxGeometry x="1210" y="110" width="120" height="60" as="geometry" />
        </mxCell>
        <mxCell id="NhT25dJwAbogH1QGbK4u-64" value="Cliente chega ao seu destino" style="text;html=1;strokeColor=none;fillColor=none;align=center;verticalAlign=middle;whiteSpace=wrap;rounded=0;" parent="dNxyNK7c78bLwvsdeMH5-20" vertex="1">
          <mxGeometry x="1235" y="125" width="70" height="30" as="geometry" />
        </mxCell>
        <mxCell id="Men9GjwN1sTNMA3EWKFs-2" style="edgeStyle=orthogonalEdgeStyle;rounded=0;orthogonalLoop=1;jettySize=auto;html=1;entryX=0;entryY=0.5;entryDx=0;entryDy=0;" edge="1" parent="dNxyNK7c78bLwvsdeMH5-20" source="Men9GjwN1sTNMA3EWKFs-1" target="NhT25dJwAbogH1QGbK4u-47">
          <mxGeometry relative="1" as="geometry" />
        </mxCell>
        <mxCell id="Men9GjwN1sTNMA3EWKFs-1" value="" style="ellipse;whiteSpace=wrap;html=1;aspect=fixed;fillColor=#B3FF66;" vertex="1" parent="dNxyNK7c78bLwvsdeMH5-20">
          <mxGeometry x="70" y="130" width="40" height="40" as="geometry" />
        </mxCell>
        <mxCell id="Men9GjwN1sTNMA3EWKFs-9" value="" style="whiteSpace=wrap;html=1;" vertex="1" parent="dNxyNK7c78bLwvsdeMH5-20">
          <mxGeometry x="640" y="120" width="120" height="60" as="geometry" />
        </mxCell>
        <mxCell id="Men9GjwN1sTNMA3EWKFs-11" value="Cliente não consegue chegar ao seu destino" style="text;html=1;strokeColor=none;fillColor=none;align=center;verticalAlign=middle;whiteSpace=wrap;rounded=0;" vertex="1" parent="dNxyNK7c78bLwvsdeMH5-20">
          <mxGeometry x="650" y="135" width="100" height="30" as="geometry" />
        </mxCell>
        <mxCell id="Men9GjwN1sTNMA3EWKFs-28" value="" style="ellipse;whiteSpace=wrap;html=1;rounded=0;fillColor=#FF6666;" vertex="1" parent="dNxyNK7c78bLwvsdeMH5-20">
          <mxGeometry x="1380" y="120" width="40" height="40" as="geometry" />
        </mxCell>
        <mxCell id="dNxyNK7c78bLwvsdeMH5-21" value="MÁQUINA/SOFTWARE" style="swimlane;html=1;startSize=20;horizontal=0;" parent="1" vertex="1">
          <mxGeometry x="50" y="400" width="1460" height="200" as="geometry" />
        </mxCell>
        <mxCell id="Men9GjwN1sTNMA3EWKFs-20" style="edgeStyle=orthogonalEdgeStyle;rounded=0;orthogonalLoop=1;jettySize=auto;html=1;exitX=1;exitY=0.5;exitDx=0;exitDy=0;entryX=0;entryY=0.5;entryDx=0;entryDy=0;" edge="1" parent="dNxyNK7c78bLwvsdeMH5-21" source="dNxyNK7c78bLwvsdeMH5-24" target="NhT25dJwAbogH1QGbK4u-6">
          <mxGeometry relative="1" as="geometry" />
        </mxCell>
        <mxCell id="dNxyNK7c78bLwvsdeMH5-24" value="" style="rounded=0;whiteSpace=wrap;html=1;fontFamily=Helvetica;fontSize=12;fontColor=#000000;align=center;" parent="dNxyNK7c78bLwvsdeMH5-21" vertex="1">
          <mxGeometry x="140" y="50" width="80" height="60" as="geometry" />
        </mxCell>
        <mxCell id="NhT25dJwAbogH1QGbK4u-5" value="Máquina rodando o Software" style="text;html=1;strokeColor=none;fillColor=none;align=center;verticalAlign=middle;whiteSpace=wrap;rounded=0;" parent="dNxyNK7c78bLwvsdeMH5-21" vertex="1">
          <mxGeometry x="150" y="65" width="60" height="30" as="geometry" />
        </mxCell>
        <mxCell id="Men9GjwN1sTNMA3EWKFs-22" style="edgeStyle=orthogonalEdgeStyle;rounded=0;orthogonalLoop=1;jettySize=auto;html=1;exitX=1;exitY=0.5;exitDx=0;exitDy=0;entryX=0;entryY=0.5;entryDx=0;entryDy=0;" edge="1" parent="dNxyNK7c78bLwvsdeMH5-21" source="NhT25dJwAbogH1QGbK4u-6" target="NhT25dJwAbogH1QGbK4u-9">
          <mxGeometry relative="1" as="geometry" />
        </mxCell>
        <mxCell id="NhT25dJwAbogH1QGbK4u-6" value="" style="whiteSpace=wrap;html=1;" parent="dNxyNK7c78bLwvsdeMH5-21" vertex="1">
          <mxGeometry x="280" y="50" width="120" height="60" as="geometry" />
        </mxCell>
        <mxCell id="NhT25dJwAbogH1QGbK4u-8" value="70% da memória RAM sendo utilizada" style="text;html=1;strokeColor=none;fillColor=none;align=center;verticalAlign=middle;whiteSpace=wrap;rounded=0;" parent="dNxyNK7c78bLwvsdeMH5-21" vertex="1">
          <mxGeometry x="295" y="65" width="90" height="30" as="geometry" />
        </mxCell>
        <mxCell id="NhT25dJwAbogH1QGbK4u-14" value="" style="edgeStyle=orthogonalEdgeStyle;rounded=0;orthogonalLoop=1;jettySize=auto;html=1;" parent="dNxyNK7c78bLwvsdeMH5-21" source="NhT25dJwAbogH1QGbK4u-9" target="NhT25dJwAbogH1QGbK4u-13" edge="1">
          <mxGeometry relative="1" as="geometry" />
        </mxCell>
        <mxCell id="NhT25dJwAbogH1QGbK4u-9" value="" style="whiteSpace=wrap;html=1;" parent="dNxyNK7c78bLwvsdeMH5-21" vertex="1">
          <mxGeometry x="460" y="50" width="120" height="60" as="geometry" />
        </mxCell>
        <mxCell id="NhT25dJwAbogH1QGbK4u-11" value="Software paralisado" style="text;html=1;strokeColor=none;fillColor=none;align=center;verticalAlign=middle;whiteSpace=wrap;rounded=0;" parent="dNxyNK7c78bLwvsdeMH5-21" vertex="1">
          <mxGeometry x="490" y="65" width="60" height="30" as="geometry" />
        </mxCell>
        <mxCell id="NhT25dJwAbogH1QGbK4u-13" value="" style="whiteSpace=wrap;html=1;" parent="dNxyNK7c78bLwvsdeMH5-21" vertex="1">
          <mxGeometry x="640" y="50" width="120" height="60" as="geometry" />
        </mxCell>
        <mxCell id="NhT25dJwAbogH1QGbK4u-15" value="Paralisação da circulação dos metrôs" style="text;html=1;strokeColor=none;fillColor=none;align=center;verticalAlign=middle;whiteSpace=wrap;rounded=0;" parent="dNxyNK7c78bLwvsdeMH5-21" vertex="1">
          <mxGeometry x="660" y="65" width="80" height="30" as="geometry" />
        </mxCell>
        <mxCell id="Men9GjwN1sTNMA3EWKFs-24" value="" style="edgeStyle=orthogonalEdgeStyle;rounded=0;orthogonalLoop=1;jettySize=auto;html=1;" edge="1" parent="dNxyNK7c78bLwvsdeMH5-21" source="NhT25dJwAbogH1QGbK4u-46" target="Men9GjwN1sTNMA3EWKFs-23">
          <mxGeometry relative="1" as="geometry" />
        </mxCell>
        <mxCell id="NhT25dJwAbogH1QGbK4u-46" value="" style="rounded=0;whiteSpace=wrap;html=1;" parent="dNxyNK7c78bLwvsdeMH5-21" vertex="1">
          <mxGeometry x="1020" y="50" width="120" height="60" as="geometry" />
        </mxCell>
        <mxCell id="NhT25dJwAbogH1QGbK4u-57" value="Software funcionando&amp;nbsp;&amp;nbsp;" style="text;html=1;strokeColor=none;fillColor=none;align=center;verticalAlign=middle;whiteSpace=wrap;rounded=0;" parent="dNxyNK7c78bLwvsdeMH5-21" vertex="1">
          <mxGeometry x="1050" y="65" width="60" height="30" as="geometry" />
        </mxCell>
        <mxCell id="NhT25dJwAbogH1QGbK4u-16" value="" style="whiteSpace=wrap;html=1;" parent="dNxyNK7c78bLwvsdeMH5-21" vertex="1">
          <mxGeometry x="820" y="50" width="120" height="60" as="geometry" />
        </mxCell>
        <mxCell id="NhT25dJwAbogH1QGbK4u-18" value="Comunicação do problema para o suporte" style="text;html=1;strokeColor=none;fillColor=none;align=center;verticalAlign=middle;whiteSpace=wrap;rounded=0;" parent="dNxyNK7c78bLwvsdeMH5-21" vertex="1">
          <mxGeometry x="840" y="65" width="80" height="30" as="geometry" />
        </mxCell>
        <mxCell id="NhT25dJwAbogH1QGbK4u-17" value="" style="edgeStyle=orthogonalEdgeStyle;rounded=0;orthogonalLoop=1;jettySize=auto;html=1;entryX=0;entryY=0.5;entryDx=0;entryDy=0;" parent="dNxyNK7c78bLwvsdeMH5-21" source="NhT25dJwAbogH1QGbK4u-13" target="NhT25dJwAbogH1QGbK4u-16" edge="1">
          <mxGeometry relative="1" as="geometry" />
        </mxCell>
        <mxCell id="Men9GjwN1sTNMA3EWKFs-23" value="" style="whiteSpace=wrap;html=1;rounded=0;" vertex="1" parent="dNxyNK7c78bLwvsdeMH5-21">
          <mxGeometry x="1210" y="50" width="120" height="60" as="geometry" />
        </mxCell>
        <mxCell id="Men9GjwN1sTNMA3EWKFs-25" value="Operação do metrô funcionando comumente&amp;nbsp;" style="text;html=1;strokeColor=none;fillColor=none;align=center;verticalAlign=middle;whiteSpace=wrap;rounded=0;" vertex="1" parent="dNxyNK7c78bLwvsdeMH5-21">
          <mxGeometry x="1210" y="65" width="120" height="30" as="geometry" />
        </mxCell>
        <mxCell id="dNxyNK7c78bLwvsdeMH5-22" value="SUPORTE" style="swimlane;html=1;startSize=20;horizontal=0;" parent="1" vertex="1">
          <mxGeometry x="50" y="600" width="1460" height="246" as="geometry" />
        </mxCell>
        <mxCell id="NhT25dJwAbogH1QGbK4u-37" value="" style="edgeStyle=orthogonalEdgeStyle;rounded=0;orthogonalLoop=1;jettySize=auto;html=1;" parent="dNxyNK7c78bLwvsdeMH5-22" source="NhT25dJwAbogH1QGbK4u-26" target="NhT25dJwAbogH1QGbK4u-36" edge="1">
          <mxGeometry relative="1" as="geometry" />
        </mxCell>
        <mxCell id="NhT25dJwAbogH1QGbK4u-26" value="" style="rounded=0;whiteSpace=wrap;html=1;" parent="dNxyNK7c78bLwvsdeMH5-22" vertex="1">
          <mxGeometry x="620" y="51" width="120" height="60" as="geometry" />
        </mxCell>
        <mxCell id="NhT25dJwAbogH1QGbK4u-27" value="Identificação do problema" style="text;html=1;strokeColor=none;fillColor=none;align=center;verticalAlign=middle;whiteSpace=wrap;rounded=0;" parent="dNxyNK7c78bLwvsdeMH5-22" vertex="1">
          <mxGeometry x="645" y="66" width="70" height="30" as="geometry" />
        </mxCell>
        <mxCell id="Men9GjwN1sTNMA3EWKFs-19" style="edgeStyle=orthogonalEdgeStyle;rounded=0;orthogonalLoop=1;jettySize=auto;html=1;entryX=1;entryY=0.5;entryDx=0;entryDy=0;" edge="1" parent="dNxyNK7c78bLwvsdeMH5-22" source="NhT25dJwAbogH1QGbK4u-36" target="NhT25dJwAbogH1QGbK4u-42">
          <mxGeometry relative="1" as="geometry" />
        </mxCell>
        <mxCell id="NhT25dJwAbogH1QGbK4u-36" value="" style="whiteSpace=wrap;html=1;rounded=0;" parent="dNxyNK7c78bLwvsdeMH5-22" vertex="1">
          <mxGeometry x="430" y="51" width="120" height="60" as="geometry" />
        </mxCell>
        <mxCell id="NhT25dJwAbogH1QGbK4u-38" value="Visualização do problema" style="text;html=1;strokeColor=none;fillColor=none;align=center;verticalAlign=middle;whiteSpace=wrap;rounded=0;" parent="dNxyNK7c78bLwvsdeMH5-22" vertex="1">
          <mxGeometry x="460" y="66" width="60" height="30" as="geometry" />
        </mxCell>
        <mxCell id="NhT25dJwAbogH1QGbK4u-42" value="" style="whiteSpace=wrap;html=1;rounded=0;" parent="dNxyNK7c78bLwvsdeMH5-22" vertex="1">
          <mxGeometry x="240" y="51" width="120" height="60" as="geometry" />
        </mxCell>
        <mxCell id="NhT25dJwAbogH1QGbK4u-44" value="Resolução do problema" style="text;html=1;strokeColor=none;fillColor=none;align=center;verticalAlign=middle;whiteSpace=wrap;rounded=0;" parent="dNxyNK7c78bLwvsdeMH5-22" vertex="1">
          <mxGeometry x="255" y="66" width="90" height="30" as="geometry" />
        </mxCell>
        <mxCell id="Men9GjwN1sTNMA3EWKFs-33" style="edgeStyle=orthogonalEdgeStyle;rounded=0;orthogonalLoop=1;jettySize=auto;html=1;exitX=0;exitY=0.5;exitDx=0;exitDy=0;entryX=1;entryY=0.5;entryDx=0;entryDy=0;" edge="1" parent="dNxyNK7c78bLwvsdeMH5-22" source="NhT25dJwAbogH1QGbK4u-24" target="NhT25dJwAbogH1QGbK4u-26">
          <mxGeometry relative="1" as="geometry" />
        </mxCell>
        <mxCell id="Men9GjwN1sTNMA3EWKFs-31" value="" style="group" vertex="1" connectable="0" parent="dNxyNK7c78bLwvsdeMH5-22">
          <mxGeometry x="805" y="20" width="150" height="113.77" as="geometry" />
        </mxCell>
        <mxCell id="NhT25dJwAbogH1QGbK4u-24" value="" style="rounded=0;whiteSpace=wrap;html=1;fillColor=#000000;" parent="Men9GjwN1sTNMA3EWKFs-31" vertex="1">
          <mxGeometry x="2.272727272727273" y="34.44197049819093" width="145.45454545454547" height="53.576398552741445" as="geometry" />
        </mxCell>
        <mxCell id="NhT25dJwAbogH1QGbK4u-22" value="-" style="shape=image;aspect=fixed;image=data:image/png,iVBORw0KGgoAAAANSUhEUgAAAhcAAAHSCAYAAABfFOnSAAAACXBIWXMAABYlAAAWJQFJUiTwAABhVUlEQVR4Xu3dB2Ac1bX/cav33lwk995t3DEG00l9//S89PJCQhJCNRh3Y5sODgQIkEZ6b4QUQgslgCkGF9x7U7GsavXy/53RjljJknZWlmzZ+u57irE8OzP72Sln7j333D59eCGAAAIIIIAAAggggAACCCCAAAIIIIAAAggggAACCCCAAAIIIIAAAggggAACCCCAAAIIIIAAAggggAACCCCAAAIIIIAAAggggAACCCCAAAIIIIAAAggggAACCCCAAAIIIIAAAggggAACCCCAAAIIIIAAAggggAACCCCAAAIIIIAAAggggAACCCCAAAIIIIAAAggggAACCCCAAAIIIIAAAggggAACCCCAAAIIIIAAAggggAACCCCAAAIIIIAAAggggAACCCCAAAIIIIAAAggggAACCCCAAAIIIIAAAggggAACCCCAAAIIIIAAAggggAACCCCAAAIIIIAAAggggAACCCCAAAIIIIAAAggggAACCCCAAAIIIIAAAggggAACCCCAAAIIIIAAAggggAACCCCAAAIIIIAAAggggAACCCCAAAIIIIAAAggggAACCCCAAAIIIIAAAggggAACCCCAAAIIIIAAAggggAACCCCAAAIIIIAAAggggAACCCCAAAIIIIAAAggggAACCCCAAAIIIIAAAggggAACCCCAAAIIIIAAAggggAACCCCAAAIIIIAAAggggAACCCCAAAIIIIAAAggggAACCCCAAAIIIIAAAggggAACCCCAAAIIIIAAAggggAACCCCAAAIIIIAAAggggAACCCCAAAIIIIAAAggggAACCCCAAAIIIIAAAggggAACCCCAAAIIIIAAAggggAACCCCAAAIIIIAAAggggAACCCCAAAIIIIAAAggggAACCCCAAAIIIIAAAggggAACCCCAAAIIIIAAAggggAACCCCAAAIIIIAAAggggAACCCCAAAIIIIAAAggggAACCCCAAAIIIIAAAggggAACCCCAAAIIIIAAAggggAACCCCAAAIIIIAAAggggAACCCCAAAIIIIAAAggggAACCCCAAAIIIIAAAggggAACCCCAAAIIIIAAAggggAACCCCAAAIIIIAAAggggAACCCCAAAIIIIAAAggggAACCCCAAAIIIIAAAggggAACCCCAAAIIIIAAAggggAACCCCAAAIIIIAAAggggAACCCCAAAIIIIAAAggggAACCCCAAAIIIIAAAggggAACCCCAAAIIIIAAAggggAACCCCAAAIIIIAAAggggAACCCCAAAIIIIAAAggggAACCCCAAAIIIIAAAggggAACCCCAAAIIIIAAAggggAACCCCAAAIIIIAAAggggAACCCCAAAIIIIAAAggggAACCCCAAAIIIIAAAggggAACCCCAAAIIIIAAAggggAACCCCAAAIIIIAAAggggAACCCCAAAIIIIAAAggggAACCCCAAAIIIIAAAggggAACCCCAAAIIIIAAAggggAACCCCAAAIIIIAAAggggAACCCCAAAIIIIAAAggggAACCCCAAAIIIIAAAggggAACCCCAAAIIIIAAAggggAACCCCAAAIIIIAAAggggAACCCCAAAIIIIAAAggggAACCCCAAAIIIIAAAggggAACCCCAAAIIIIAAAggggAACCCCAAAIIIIAAAggggAACCCCAAAIIIIAAAggggAACCCCAAAIIIIAAAggggAACCCCAAAIIIIAAAggggAACCCCAAAIIIIAAAggggAACCCCAAAIIIIAAAggggAACCCCAAAIIIIAAAggggAACCCCAAAIIIIAAAggggAACCCCAAAIIIIAAAggggAACCCCAAAIIIIAAAggggAACCCCAAAIIIIAAAggggAACCCCAAAIIIIAAAggggAACCCCAAAIIIIAAAggggAACCCCAAAIIIIAAAggggAACCCCAAAIIIIAAAggggAACCCCAAAIIIIAAAggggAACCCCAAAIIIIAAAggggAACCCCAAAIIIIAAAggggAACCCCAAAIIIIAAAggggAACCCCAAAIIIIAAAggggAACCCCAAAIIIIAAAggggAACCCCAAAIIIIAAAggggAACCCCAAAIIIIAAAggggAACCCCAAAIIIIAAAggggAACCCCAAAIIIIAAAggggAACCCCAAAIIIIAAAggggAACCCCAAAIIIIAAAggggAACCCCAAAIIIIAAAggggAACCCCAAAIIIIAAAggggAACCCCAAAIIIIAAAggggAACCCCAAAIIIIAAAggggAACCCCAAAIIIIAAAggggAACCCCAAAIIIIAAAggggAACCCCAAAIIIIAAAggggAACCCCAAAIIIIAAAggggAACCCCAAAIIIIAAAggggAACCCCAAAIIIIAAAggggAACCCCAAAIIIIAAAggggAACCCCAAAIIIIAAAggggAACCCCAAAIIIIAAAggggAACCCCAAAIIIIAAAggggAACCCCAAAIIIIAAAggggAACCCCAAAIIIIAAAggggAACCCCAAAIIIIAAAggggAACCCCAAAIIIIAAAggggAACCCCAAAIIIIAAAggggAACCCCAAAIIIIAAAggggAACCCCAAAIIIIAAAggggAACCCCAAAIIIIAAAggggAACCCCAAAIIIIAAAggggAACCCCAAAIIIIAAAggggAACCCCAAAIIIIAAAggggAACCCCAAAIIIIAAAggggAACCCCAAAIIIIAAAggggAACCCCAAAIIIIAAAggggAACCCCAAAIIIIAAAggggAACCCCAAAIIIIAAAggggAACCCCAAAIIIIAAAggggAACCCCAAAIIIIAAAggggAACCCCAAAIIIIAAAggggAACCCCAAAIIIIAAAggggAACCCCAAAIIIIAAAggggAACCCCAAAIIIIAAAggggAACCCCAAAIIIIAAAggggAACCCCAAAIIIIAAAggggAACCCCAAAIIIIAAAggggAACCCCAAAIIIIAAAggggAACCCCAAAIIIIAAAggggAACCCCAAAIIIIAAAggggAACCCCAAAIIIIAAAggggAACCCCAAAIIIIAAAggggAACCCCAAAIIIIAAAggggAACCCCAAAIIIIAAAggggAACCCCAAAIIIIAAAggggAACCCCAAAIIIIAAAggggAACCCCAAAIIIIAAAggggAACCCCAAAIIIIAAAggggAACCCCAAAIIIIAAAggggAACCCCAAAIIdLXA6rV3Znb1OlkfAggggAACCPRSgWdefG5ZXn7ehvUb3n589X13EGT00uOAj40AAggggECXCNz3yAP9jxYe3drY9Kpb++j3JnXJilkJAggggECnBUI7/U7eiEAPEKivrw9raGxosF1RcNFQV1dX2wN2i11AAAEEerUAwUWv/vrP/A+v4KKhQdGF+0n01/oz/1PxCRBAAIEzW4Dg4sz+/tj7Pn1CQkJaMLT8G0IIIIAAAqdcgODilJOzwS4WaH0ME1x0MTCrQwABBIIVILgIVozle6pAY21dbZVldfbUHWS/EEAAgd4iQHDRW77pXvA5lXxRp7TOXvBJ+YgIIIBAzxYguOjZ3w97hwACCCCAwBknQHBxxn1l7DACCCCAAAI9W4Dgomd/P+xdYAESOAMbsQQCCCBwSgUILk4pNxtDAAEEEEDg7BcguDj7v+Oz/RO6LRe0YJzt3zSfDwEEzhgBgosz5qtiR9sRIKjg0EAAAQR6mADBRQ/7QtidkxYg2DhpQlaAAAIInJxA+Mm9nXf3VAFNPZ6anJQ8ID42LisqKipF1R8USDb0sVk4VC5bN2Armt2oyb70S700PYczJ4dN/mWlIuxfnJctoVdYaFiE/gip1cRgtTU1FXX1dZUR4RFh9qqrr9d8YXW1+t+GsPCwyJqammPlx49vXXL9QtWd6PYXwUS3E7MBBBBAIDgBgovgvHrs0ovWLA9JiI/vl5WROSFnQM60YYOHzI+NiU0/XnG8cMjAwef773hNTXVZaXn5kYb6+lqbmcP3slasRv13qPPjzNnR9N8WVNhfw8JCFWCEhDQ01NdWV1WXWEyiJUIjIyIT9cpuWq5P41sb3/7Jk//+503672M9FowdQwABBBDoNgGCi26jPTUrvv27d/fv17fvVAUQc3IGZM/KTM8YZ0GF3eiPFhYe9rU4NHd/5eXnvfPvF567Pa8gb6s1N4TqZTN/Of9jf4aGhOk/9NfQsKa/hobZX0ND+4SHhYaqsSIixqKO2praCs1IWqm390lNTR0++5yZ38juP2C6feqY6JgMpwWEFwIIIIBArxQguDgDv/bld61OGpSTM3fksJEXDckZNC89NXVkRERknK/loLmboLK6qiw8LMz9vXV01K1b/+YPNm7Z9Ls7l67u8OZ/y+plth43KHG6RvQ/IeGhoZFh4eGRWpfNdV55681L65fesfL14xUVRZ/40Ed+oMAmLT4uLkPbPZXHFl0jZ+BxzC4jgMDZK3AqbwBnr2I3f7Ilt68M1Q07Oz01bcywwUPPGz5k2MUZ6elj1B0R3zqg8N8VdX9UxsfFp/r9LqSmrqYiUGBhy69ZtMICCicPw30tvm1FqH7ZYIGFWizqVyxY7Pz7ypuWVq9Ze9fG4pKSXGs1SYiL7xseER7TzSysHgEEEECghwoQXPTQL+aWNctDkxMTB/bL6jt5YPbAGUMGDjo/My1zbFRUZGJHAYX/x1GeZU14eLglYjov9WaEjR428sN3PXjfqyWlJQfq6xvqrDdELwskLHPT/rRfWLKnf2uA83t1gzj/pj8brGtE+xild9VYIJKSnDRUAZATyMRY60VsnHXNHDgNvMxcFgT6ojXLwuNiY1MTE5Kyo6Oiki0h15dn856jsnoVUVrOboVaqPJLS0vyqmpqKm9btPJUJOye8GmUXxSRGB+flZCQ0D8qMioxVLlAdjz6Fmzab+2zjtPq6pqa0vLjZbmlpWUFSlquW7NoJd11QRwfLIpAZwUILjor103vu/OBe4cN6Nf/HLVQzLUcitTklGHR0dHJXgMKv91ScqZyJUJCWtxsx40e+6HMzMwxxcXFh3S3qLF/tJEidvdoVKam/sP+Wz0eDXUaSKJXY53zd/1e/SD1tlCDghL9vVq/1E995YUvPBs+duToDyYmJPazy3qEWi2SdLPSf6/vJib/1XZ7MHH3Q2tHxMbEZPm+AycQa3EjawrITKumqKR455LrFhYF+7lX3r0mJiU5ebQG38T6f4d+37uTcKub+5Ebv3ntzmDX77/8sjtvjctIy5iorrXpA/oNmJaSlDxY311/BRdJ4WHhUb7gosUm9NlqNVKoqqLyeIFaqA4UFh3bMX702JcO5x5+R3/fvfqWFS1auU5m/9p674q716QqWXnikEGD5/RV0nJKcsqQhPiEvtEWXISGhrfeZzuadbxqYFN1Wdnx8rxjRUV7tK9vPfijR185eqxg07IbFgX9HZ3sZ1p13+3xyYnJ45TIFNVqXf6F4BpKy8oO3Hz1DXtOdnttvV9dmJHJySnjoiMj7ZrinP5+x7O9pfVDhf2uo3PMfSBprKioOHrDN6/d1tZ273nou6NiYqIzO/hMzjZ0nFUXFRfv0Eiz4mA//8p71kSkJKVMUuJ5jPbYPle979P4Hpicbt4QjWTLKykt3bH6luXtfq7vPvbgpIjw8AQ/H78Hr6b1+P24u9r6utDeR/APhN3rSfP3oKe8upKykr23fGfB0WANetLyBBen+dvQk2NYdFR0Vk52zozRw0deNDhn0Hnq/hipm4xdgNwD2MteNh/Y5cfL8/X+OLVaxOrPxj379r5cUVV51NomfMNLQ2yQqRNPWDOEhQu+BEw3uaLpguIMQ3UilLBGZ9RpiHIpIpVOEak/lXoRHmrr15+RdXX1xw8dOfSafhujG9UAPVXmeNnpnr7Mwz95dO7/e9+H7s9ISx9rfL79bfmUbF+UsmBlULVt1/YnoiIjVy741vU7vH62JXesDJk9bebVc2fNWRAZERHnt52Wq9BWc/Ny31IQ8I1vf/WqDV7X7y63/M5VicOHDr1syvhJnxo8cPA8y49pdTPpcJUa0txHrVN9M9MzJ9iCM6dOv+pYcdGuLdu3/iXrsczf5eXnb1i9aEVtsPvV0fK33nNb2piRo/9n0rgJn8junz3DAqBg9jkmOjo1KTFpUHa/ATMmjh3/iSqNctp3cN9Lo4aP/M3WHdueXH7j4lMSZCh4jL543oW3Tp0w+Su6+Sln6YRP3fybXXv3PKuAacGCb123uSstbV0jhwz/0PsvveIOnaPZXZp0rWPz6NHC7Tqmrrnqy1c+57/fj/3sR+d9+IoPPpyWkjK8jc/dfGO2c6hW59C727b8MeqByNULvn39rmA+/7kz5yyYM23W9ZER4bG+7ZygbNs4nJv71u+f+NM1Wve6ttb/xyf//OXLLrh4tR7qUto9F4PZsSCWtf2zB7qtO7b/tXFtn2sWXbMgP4i396hFCS5Ow9ehJ8do3XyHZKZljNOT2Cy1UszPSE0fpZu05Sl4Cih8CZX1urlH2lPl/kMHXjlw+NDrBw7uf6Wqprr2f//fJ39igYRih/Innvr7goJjRzeFacyHzrY6S+y0j20Bhm3PKWfR9PKPxp1hpb7fu3/aoBJ7SnSeFJsGmITU66fO7q3WEq0m9uG6GT+YnJg09DTQdvkmNax3ekZ6xnhFWM3dS+1tJDIyLGrCmPGfkWZozb23X7P4upsLvOxQXExsv6GDh1yiINM/P6bNt2ZlZk1JT0sfpX/0HFwsvePWiME5Ay+bec6Mr4wcOvwy33HmZdc6XEY3wAgFwqPPm3XuKN38//fNDW//NPXh1J9d/43vtPn0GswGV9y9Om7EkGHvnzVt5pUKuOfZMRfM+9tZNiQ6OipZgcUHRshh197dzwwdNOSx3Xv3/G35gsU1XbD+dlehG9UAbevSiIgIexru8DUwO3uORn3Zd9ylwYVaLSIGDxp8gerfdMu5mZWZOWHQwEFztN8tggu1wJ5rwbnv+tLhZ4/SOTRlwqQvqAuuZvmdt96yfMEST8PZb3/g7qzhg4deruAzJZBv/779pvXN6jv25lVLX7998coWAYi63CKHDxl+eazqA3nZ30Db6sy/awBelO4LF/XNyLIg/pnOrKMnvKcrTtie8Dl6/D4svm15lDXl6sCeoqfG2Tl6kmqVlOn/GdwmuBa/q62rrVTz7q68o/mb9JS4ddCA7ItHDh85V0Wsqp96/plVe/fve+m2xSsr73vke1P0dBRufRo1tTUVVdVVhatuXlZ6KpAUOG2vqKws0QVs8MLVS8PUL9+tzeXd/ZnspuYEX97Ho4Sou+DjaoLfoETcu200TaB99N04AwYvth5fIOhpWVv+9vvvzpwxdfrV0ydP/YqSe/sG2pdO/nuInoRz5p877xYlG1+o7ot77clr1cJlnbphKydo6LxZc6+fMHb8p6zloZP71OHbLDBSgHG5dUG+8c5bj0Xdf/d3F159Q3c+JUbou/N0FNl3bPlR3fC5rcExuhvW27zKyPDItoKnYCtBh06ZMPnzR/Lztupm/7C6L6o97HO4Tg5P9zPr8vUFDv4PUO4m7NxyCgZ62GZ3LqJW4dBu/a66c+dt3Z6+jO7eibN5/Xc/uHbUwOyc2cOHDJ1nzbpJiYk5fqM82vvo7kHfWFVVVZZ7NH/7lm1b/lBZVZlfXV1dtG3XjufUkRHW738+Zk8Jao6vrSwqLtprgYWtUK0GgxVw1NoTdG1tbbVaL6pOlfGKBUtqLp9/SYGeDEbFND2Je3p6P1X718ntBHWhsRuXugy+fijvyEZt7+8et+n1Aux5X+763j1DL51/ya3jx4z/hJqZTsW5HpLTf8DsD132/rWJyodYdNvyx1Yv9HRjaCZ64AcPTbv8oktXDR887NJTcYFXM37GeWpOt668xrV3LrzlmgVHPH5f3bmYk1/TTRvorvU6u2u5v12x39a6pu/l6tz83C1a3788rNPpwvWwnC3iXl/bO5c8n2Met9eZxSy47An70Zl9d95zKi44nd65M/WNenqPUhPoxWNHjfng4GzlUKSlWRNnW90dLfrurQVCIzyqlWx04Ehe7kZ1dbyu/vs0ldMufnndK/erCTpDrR8huoGXLLvj1lTL8jcjJYAdsix++++Fq5aGpqakjFRAYTkTITU1tVVa7ykLLmwf1A+/b8igIdNUTCtZfz3VwUVXXzzdhKugDkd9T4PnqEl/zdo7N+iGdTDAm4PZZ0/dZtpu/8svvOz28WPGfexUX6SUaDng0gsuvrVGga2ePH+iJ09PeRj3PvTdMe+7+Io7hg4aPP9U7rN6+MInj5vwOaUe1dXds+b6pdffUhLUl+1t4WC+Y1tjl9yk29i1YPfD26d7b6m29rtT27SW3nNnzP66pjLYtOjamw55OIeC2U4wywZr0FXLE1x0leSZuh4lyoWr/PUQVaicpv7zNHULlH7g0ivu8fWht3uAqLuiuFItE8qO3l9QWLBL2cmhG7e++/vDuUfeqaysLFRQUTdj6rSvqilTpTLDLPv96Fc+80WniVDJdYlRTXUu+miEwn61pDpN0HpyCNEIk5GKZSL0BB2mQlrFSjR0WjRO1aukrPSQ9i9B/cyWfHfGvpbcvqKtZlPPn2fk0BGXqf/4MypIdreG63bUPRLMhS7gPq24a1X0hefNX3w6AgsXR99/8hUXXrq6usYpE//bQGi3rb2z78UXXLTsVAcW7+1XSKiSLb94tPDodnVh3rdqobeAKNDn8vv3YIPUYI6JIHajeXRId9242trvTn8WnUOXTBw34ZM6Fx+89eZlHXWPWFDTFQFZsN9TMPbBLBtMS0ww6z1ly9Jy0UlqHeyRllegRLnZg3IGWQ7FzBRlQ6sbomLz1nef9gUWLStcKr9SIznycvPzd8XHx2VsfHfTb/IK8tcrwDhaVlZWOfOcaZ/ftWf3f9RPX2y7dcuaZbFquUjUSI9DliypIZ7NzX5qzk2NjY21mhd99N6DCkCcf9NQwhgFF0rYaoxQ90v0saJj+Ro56qXPspMSJ76ttKz0iIa6aWBBXEaXrbT9FXX6wtXd+2YjfmZPn/kt9R1bguOfO9heMJ8h4E1h/Ohxn50yfuJntb2Ay7axT412DKvlS/PONP2rar7H+EYvNQ0gai4p0bGgjs+MebPnXn/v9+/feN3Xr7bm7TZfGjEVOn3KtK+NGzXmI53dZwXi5Qq+nURlC6ojdfxp9702k/v2KyRsyoQpX9y5Z/dL+sV/u/j4COY7tk0Hu7yX3a1VvkG3tmJabZGbb10SevuSW5tv9EoeiHQ+kC9v3BLBnTQmD8eREmDjZmlqgUOHD76tVTwb4EN2h5kX15NfpvV5FdKnwWZmOPkVn741EFwEaa8ciuGDslV6W8NGrQ5FkhLZrI/dd1G0+Txyo6Kird6DFZuqLi4p3nfwyOENdiLtP3jgxR17dv77+PHjDfPnnn/dvgP7Xzh6rPCdiEgNngoP6x+miTtUe6I5ENAF3S7qEeryOKTEyMZHHn/MWgKcbgbduNP1Y5nRjaXlpQd0I3BOZnuPJjDLVE2CRo0VjVDgUuy2agT5UTu9uLppjtilQ7kfAzq9ks6/sUddYKzex0VzL7jpjgfu2XTTt68/qfoUfiTtfkbdyMcqgfNrurkGHJXgT1zfUF+zd//+F3bs3vmv/Yf2r1PxqQpfIGEtYYM1oukCjTS5PDUlNaiRBv2z+k3V0NfPaqTCSqvk2tbXqha/2edMnvpl33nk+Zu3Alk79+x8aufu3c/tP3zgTQuK7HzQcOjo7H79pqjl5sMjhgy/NJj1pqWmjhg1fNSlqka7TgmpXVkkLJjjsltuKvKvG/fnMa8qj+uzNszSd83y9w5muyd8Hj1UHDxw+MDr/oGFDcFVpZ1QG/bqn6QaTICh6Q2GqyVuwap7b9+qEViHOzhAgtn/9lYTzPfkriPQewLvV8tAq7HgaMEW1ZLZ7vlk6IELElwE+FKUPxGmR/AB/bL6TVF2+SXKpZiv3IfWORSW4O1UrVTLxH4Nh3KK5Bw4fPCNP//9iSvVqBCl2gDjdOKtu/Gb123T3CD9rGhEecXxfNWkUstxdW1cckqiWiByrRCTu0tK7Y62GhLl5eW59rv4+AQrTOUEFzZ/hz1R2n+rINaeFTcudro+1NKRoAnGwsrLyovDIsJs5aVrbnFKeZ+yly5eRzUb61Gb8v2UbbQHb0hB6IxZ58z4uo6lWyzhtY1dDeb76fBCpeGbF/fv23dSMBzKkdnz4qsv36t6Fb9TMFqw8qYlrZuXX9fIn7+oeNWPzp0x55sTxo77hFrFbM6agC8rcGV1KjZu3fwHLfxW6zfIJFLDdz+uQHRgwJW9t0Cjaqq8/p9XXr7PamwoIK/SDa214Rs6z34/deLkL2kUywKNlLGhhQFfGnIcrqTUGeretFa3rkzu7BHN7e9u2/rHsvLyoxolM8mSJp3SN0rCVMn+7HMmTvmCgtKA36u6bEvWvf3mY7q2FGkIulPOV4nm5QeOHHpbXbotWnz0kFOn7t9SPWjVaXth+rOP/Wg7nlou3C/MpjzQsOSvawTWGrXsttX6EvgG3vLb7+ic83w+bt+9498apfecTfSo1bv5UO53bX+655K1ork/dquwofyqDuDMOt1H9YaUHld7PFQqMqvYvX/Pi9de+e13Ax6wPXgBgos2vhwdwOEqva1ho/0nDhsy9AKN9pibqXHalvjlO4Ccd1lAUVxaskfj5J/XKJChOgEuKCsvO5yemu5c3DVsdMe1X//25vseeWCM4o1YjQx1EtusqqBVvNS05aVqOo5RzkSJLn4Zeu+hO5auau6bV3OGFcGK1ElcZu/TSdk8PE0XA2sd6WMFswqPFe52P4ZmQY2qU/uwbvDliZGJsRph4mmceFceo0ogLSssKtybkpQ0uCvX2866PF8IOrEvAfMbvKzTLiST9fSuBN1XtfzvvbwnwDJtfmblLaSOHD7iCusV8LqNw3lH3vnH0/+6ad/BA8/rot1u95laziwoenPVvbddo+921/mzz1tgeT9etqMaByOHKSjXsicEF2mpaePUKnKR/3kVaJ063579y7/+dl1+QcHGNoKK5rcvv9Gpwnnv75/4Y9ll8y9dpYC8owqRze9LSkoaGBsXa8FIVwYXgT5W63/vluN6xU1OcPu076d5m2oVvWjy+Imf0i8CBhfVtTUlr7z+2qMLv3NDwEJxOqbqnnzqH1YXJ0QBSB/FGn0UZARr4UxdMH3KOV9RUPm2cpj+rBym1gGwp0TnoDcc4A0HDh189dmX/nO/zQ6tl127nR+dLyfkf9yyaqkz87S97AHQXipeWK9gvitbyLr6I3Z6fcF/y53eVM9+o7LawxMTErJVg2KmirHM14iLEfoZlhif6FaaVOW0hlrNyXFQT3oHdNM+eiQvb31dfV3Ba2+s+62Gz61WcHG+dUPoomsnaGNFZUX+bd+9M0mZmCE2vlzBgfPUav3B+l2NzXWQmpI2sLCoaFt8fHz/srLS5iDBOQDDIqKtHLN1legpzIaV1itzOlwRbqPtnzWXqFUjv7a+7rirqxM3TqNI4hX9Wp9dH3Wp5J1qeT2kHC8pKT6SmZ41RK5RHsepd8lu2hTyXbKippV02QVex1bWudNnf0fdI+vVPdJW5UGv22p3ORX7mqBuiMleP78Sj4+9/Nor9xw8cug53QQ81aRYfN3C0tX33f5ASnLqkGmTpnzFS7+5tV4ogLhYXSMPqGm+xXb6Z2VNTQuiq8Uqgj7z4rOrlcPhuYjYpi2bf6SAf8h5s+fe6GVIruUt2Xnn1bEblvN6LHTZpm0iwmBWpuU93RCVmxZujRsKLGr0nkhr1HWDC695F+5+aXhzf1Wy/eaR/Nx39LvW51BnzDrznhZManhQw3RYiIKd8kB+a1oW7DI/T4aB1ttT/73XBxfqx+s/eOCgWWpOnj9qxKj3K4fCmmdD1JRXYk+cNqLj4OFDr9iIDEucLCot2lNYeGy3Tph65UscVPXADN3cy+Ni45wCRZYjoRLOdmFqVA37Qxo/n6UWi0RFqpEKRJwnw8ioyATN1+GU3daRaSM+YjQRU86R3CP2ZNv8sjK2VnnbmhTVspFutXXUKmDlthPTUtKG2f4pPK5XANHcOqEnwWEKVJK0v0etsrdmmjrVQ0H7aJ6J2nmzzz0ydPCw2ZpozUpMd9RPerLnRosnBPW3ey4wdbIbDvb9qo54robWXb309hU3rry5RYGpYC9ybS7fr2+/c3Qcek6i3bV31zOqUmklsD0FFu7nXXTtzaWpP0n9sWq3XKJ5STx1Z6juyWTrGtQ61rvrUQXG0JwBA2crac9/PpV2Wa3g7DubN/5q/6GDlnDp+aUqj/V3fu/eh/pm9h0/aviID9j53cGbG9UauU9zkhR73sDZsWCwx6CnkRka4VH3xD+frFdQEWGj3txXsIGF+z4FqefPmDzt/9S6vNhaRfzoW8+REuhbaa+bKqjuFXtAVL5SrboN7bpTZ7lxgTbcW/691wYXeoLMmjN91jVKUrtCT3xjrNnNugePHju6LS7W6Z/VZIuhYbv27X76X889vSghIT5JEapVvSxRwKHRG31C1O9cr+6HYwomkjQ7o9WcUIHt0DBdLJ0bnGZjPGxTkKulIc6qa9bX1TcNI42MSqiqqSqyYEMtD3bzV7wRlaQ8BWvGbX5Ztr3eW2H7lRAfka6M+NplN9xSrxoXDUo8cy7q1dVVZVaF032TApIE5XFaZTedbI19NBS1O8bsBzw/ysqP5ykIio6Pjbem6O4MLprvFU6w1eDpmhdw/20BXRgbn3z6n56W9bKQrloh50ya8nk1pVoOwy/8LkQn3aS77M5VkZo/Y3p7lR1bX8zVwnZ887Ytf1r4nRs71W2Wl5+3Xt08L3sNLjRLbppylcbIqTm4UByYmJ6SpmHT3l5KGDxkCaedGSaqeToOhjwY8p0Dhye+riBjioJ2Nwh1ZvZz+r9D+oTqgSB345bNvyopK+uq5FtvH+5MWkrdwfa47nWXIyIiY3XtcxPOnbd5afFqa/12fZ0++Zwv7ju433I7/tpqma47+T1+OE0AOHrsqNFXqAXDKXz2s9/90lqA3ABDJVlDnAdOO7bsIVHX8yrrT7cWVstv0T2g6lDukddv/na3Vof1+Gm6drFeG1woyW7m3JlzrlfXRdGe/XtfcspqF+StV7PrYRUAWqMMZWXFh4SoVaDAxuoPiO+Xo+z0KjXvVSh2qNTFp17NdMkKNEItWFAgkKJ/L3OGwUVEWqKltVzkWQuIDqJUxQXHNTtYU86Fuk30b3bDrdOfBVYoy441q4/hfr26WcRYuebK6soirbdcN81kHY3OQWvlolVm13naU3LVMSelyvdSAaN+Sg6y+UPUbtHYqKCmW4eetXc46kZwWCWJqjVyxVMiXWcPa0t4NRJ7v+XAKNhq7iLq7Dq7830aopx8/py51+crG1zbedO3rWDPwxOejpQrl2DdeO3te+uLueo57FWQ80pnP6sukpUqcb5uoqp/eilVbRdYzfo6VEXewlRJ1mmCj46KTAnm+NA5uluVaIOazMr/82k22T36+63qs3dzp5ynVz1E2Ax8ETqIwnQ3aFBytJPj1MWvYJ6Ig1m2q3bT8zbt+1Zs4bmFUNfAMl/Ce5fsq1pmsy6aN3/J3Q/et1OzsLpJj7Y/QbUatJ5XpDM7p8nwPq4fK1TX4ctaqZVjV26xhrOgrlXqI1JCbWP98y+/cJdaYlaqJeaUB0eB9vtk/j3Yi9rJbKtHvVdnUvjmbe/+5Z13N/5MXRS1uklFqdTsJgUKacpZSNad2XIjNHthQx8FE9HqjgjRCRWtVopUjeKouOpLV+b9+Fc/jVFLR7luGNn2Hrux6SqlAaURMWplOG6lt/WEWKLpuqNq66x1oaFBtStC9e+ROuGKFJykKaCvsBwMm/7cPbtX3nOb5WeorEV4jGZxLFZ/XqOadSttvYZo02P75pho1E38gE2Fbb/XZE8p+reBaqZzZtbT3D/H9W+ntMaF+yUXl5YetP3ScNlumRvC3Y4FVnbi2t/1dFTjmzfgtBxrijxt7tgQfW8dbl9PzpNnnjP9a5oieomqQVpl1WDOwzabc3WDjI6NjrEuqHZflqVvQYYlqOu42V9TXVPYWag1av790S8f36BWs3JrdfOyHo0eGuRr1XO+L2fK9OhoT0mhtvzRokKbt+akb/w6n1r3ddv+nJbzxItbT1jGv+VL10sr6Oc5R0NdowlR0VGeur50DulJP9Rqq3T4sdVKN00tz99acdfqxctuXGStb84DXRdZeQ60tL12Wx3NzFpSrTtI94JQsaXY57K/q8Vbrc7VffRQ2kfXg3O0Hmv5OKuCi65Mfuui7/XUrMYe6jVs6k09wW2zp6HKyorDKledqAtlspK5otVi4YyZ19EalhCXkKmD4bjNaKgaFqnJyclOfoUu5skWQKg/MV7N/2l6miuzfhFfroblbIRZnoQejCJsmJFu+A26Gdp05ZFaX7Eutjm6uGZEquWjTv12VmxG48ItgVOjPSorLOhRtcv9etIKiQgLjy8tLXW6TTRsL8eGMOkMr7XgQutzks+06eiYmOg0VeS0wLha2yyuVS2AUyPaciuq73FAN57jGtXS4Q3vZPdNjqU2MkbfQ525d65uVId74flCs/fAvqff3fbu7wJ9JrvBTxo74ZOjh496/82rFtv6PTcx+9Z9wkVUB5nFrG1ewC2oULDrXNDsT5s+S0FvoVrkTiqhTCOVcuXuuWVMc80k+yfcWoufr+UpEJn9e6O1IloQ7mXhs2CZrrpRBkPR7rHu1qWw0R46dnTOVQZMYLQNr7h7TYx1jzpfYAfzrbs7qeH7/9WU6zaiqsPPb/szecKkT48cNvx9KtplrZctRvIF86FbLdtpd//PZ04636r1U6FzpLkbyO22dT197wmxk/ck9rlHvjWYJ6Ye+QE6u1P6wssVJZdp2vPx6grZVllZVWoVJZUQN0A37jBrabCmPF1AC9TcPEqVLnfYgaBuhjoFH46bDhBdzEPC1M2RpGaGGEXztW5BLVXVLLcseUWpsfZvOsyO2glj3R+WdKiLfJmCCQUbfcKVzNlP6Z3qMmkM1dO++vqX1ty4/JZImzsktyD/NRtpYjUuCgoLX7Pt2siSqIioBNvPsuPH8y0nw37fUNfQEBMVk6IYxrJFK7R/jTpoE5W0arMs2nTrTvey77T1XUicM76pW8H99/fu0BoC7yxt+RsWVTs/fss5DL7vwJb0zTbY2EetJzEWeGlqeU/D/zr7PWo7FklpnLjCRX1fsj5tMwnqgpv/0mv//b5GJoxQHYHJHX0mK41+7sw539bF9BVzCnQx9eJjOR3O9+hX/dACC3tCci989vcmMj16OvPPdP7V1PXm/Qm2jS0FlWtitQB8x2Dnd/r0vTOoz3r6drNpy+7x4t+dZoGpHT92ollxDC/7aDMz+14timi1916Nwst99Y11j2SkZw7tn9V3akfbsLmL1HpxtR4S1YLmBLmeHwS87LvXZdzzzbWSU73fOa2JJevq1Dod7tb4sD/tZS0YTpDRp1HPlk0jCc+mV68NLqyVwcpUK+Gyn5Jy4nSAvhah3/WNj89Q2oSm2dZNVBdPa9lQV0O2ukx26jpqRbLKFI1Gqo8sraq2OlbHTaNu9k7NCbUSVGt9zs1UuRBOK4OClSxrNi6qK95pQ7KUJRqjAy3GEnnUcVGhYKVBuRWpCkbyLS/DrTWg1pCk2Ji4FCV55lv+T0Za2oide3c7o0msiJcyQOOtNcTKia+8eamTy9EY0tiosfxpdufQAVw6dODguZ/+yCd+pVijxqmVY4FB02WhKbPaqvBaJOJeTpwLRtPjha/bxamw4wQWtmRTkNF8YfGtU1ttfke9nd3aiP1/mJL9cjSiJkH5I5psbbGni1GwJ5cVArLuItsXaylxA79g19MVy1tNEn3eHc+++NztH/3g/3vISrR3tF5dPKfMnzNvwfOvvHhPEN05FiiecBF1Esp8v/X/Z3uCsqclG/5nFzO7QdiTlFXwVGXYYFtMWn+cU9by6fVm1hXfY29ch1Xz1ec+ITh1LeyGaMeSjfRWQeF4r1VP9R4rOe5rVQwsa0nzqr2yWUH6Ax9534cesvO7o3flDMiZPvOcGf/339df+b5d3AJvwdMSAYMU/+DL/3yz3+szW/RgCZvWva3UM13tZWeFw+zcs2XsXPTl/dv5Wbd8weKTakX09KlO8UK9NrjQMV9dVxfR2Dcza7bVo9AcEF99a8P6h/SFh1k3gw7qcCsnrCbAY6rOOUslla9WoPFqQeHRHUNyBn9g1PCRnysuLd60Y9fO/yYnJg+x762mtrpKwYQTaGiUxjEbxhqj4EWJbKPUtdJXQcxIrT4hKT5xQL3u/3q8r1FCZ5EVU0lJTB48fvSYy3/0i8fzq6orj8fExPVXX6U9/ZdanQudNfVqIYlZefdtYSrBPMK2oRyPUuWAJN778P3jLfVAyXGD1Y+tbpG6Cuv7j4mJScyJyZ7SzjHlfyIGPJlaraP1Sdzc+uEELU0vZ51Rhw4m6MZnTX7d0qetE1OZ62FWpMdGiqhdySkBfbpeuvGHhm3fvfPZN95+8/HzZs29OlCyo0pUf6K0vCzP1xrkZb8t9+eE81ZBlXXBqT2iwbmA2csuZu7LvaC5zbGKc8NioqM9J+W1tWPaD9WD8J7YZ7vnd3z4noC93RAsVcR3ozllAY2XLyOIZU72HAtiU8Ev2tSl6DtxhW3Hkd0Q3ePGggr3JmrHjiWue9yKXQ+Cuenr2A4J27x1878HDcj+iQKHr7vXkra2Z/s0ddKUz6jqqFU39rpPHe16i+/JvxXQ/02uhdOarfPNWmjsmmtBvCXc27Hus7NSAtZ64QQUvuLNrUfLnKnHdIeHQK8NLmzWUCXXpNiIjJ17dj07Z9qsz2i4XF8dCBVWNU1X6VqdERG6MarmRXWZRpZc+cIrL25Tt0XN+NFjP6KaAhPefOetH/jK2lpft+YScZI/nQQ1jX6use4KradOw+1Gjx05eo793hIwNIzqxdffefMxHcXVGlpa+se//VkTJk384NyZs79kNxmbhEkX7siNWzb9USNFbPRDiApsHdbBWqfEqFQFDc4Tsf5M/+BlH3jAd6BbV3qImttT1QrzrpJIW+Q6aJ2leRqhEBcbk56anDq0ouJ4wZ4D+19Sq8wAK3fc0QncxhHU3BWikTbPqZjYJs1mOc+GVm3dse1J1doYqSG+l9kFyyYeEqEdZ90VXFi/pmWj19sTvVuozOOFr6sXs+9ATccNha+//dbjA7MHTlcdlLkdbcR8VHb5KrsAed0Z6/VovayuZbUWqCrI6Ov269rFzZ6O3NYLy7lwL5bWMmYtLV632dZylqCpkVGeEvXs/ccrK1R7xXmqc16W7KxUmWonFc/Dy+bxsSRrLdolTcg3rVwcqgA+Vt1GlXcsXe05QdHDrra3iNfv2OtyJ7ErLd+qR+vmz2/Hj3WluceRW67bbo5ON5uuSVre63fg61b1vKt2GoepTP6+hAcTHhyg4dU223RH71YuT8qcGbOuU3NtMIXPggl4HAtr9WvV4mCBhT3fOC0VOs8s5c5aLEKVLO0EHBZkWBqe/l19iPVO8HHiq7Fh0W3LQ1YvXB7UPnkWPU0L9trgQs2AiUmJSaMsJ0IHRYTVoYhWH54iYOuGUGxQV6OnspTo6Kh49XaU2Pej7o1Y6yJT+VunCcua46150DettDNpmC6e7njuKOXoROn+Wq+Lar5NBGVNZMoOTrYnz7qaOuuqKNIESRHWPWHjRpUJX67gwC7WobZ937Tl8bopVGldViHUgh79b1M/t24kmno0vK2iSSGWO+J3TDW+8c5bj6lM7V2qFDnsi5/87G9sRtZ/Pf/MErV2DPny/37hiWCqJLrrlVvlP595auFVX75y3R/+9ucv2YiZyy+89L61jzwwObtf/2lW0Eledox1xRNFm6eI5ZVYEGOJgTYvhO/p+DSdTs5mqzXUsmHxmuUbX173ylp1YY0INK+FutU8j5ho+mCNJzzp6PgtKy4u2puSmDTGDSjsRmAXM3tasguj75h1AgxrYbMuQf3ORqsE/Vqk4Zz9+vad6rUAlm2g8NixXaod0nxTUotNrloNi1U632ntC/RKU9egHgCStZynZMK21nfX9+4bO3TwkIvsHqATqcaOG/UIRM36+1+VQN3gFLfJyy9458ovfOWZQPtzNv27umSr3K5QO1bcrjT7jBacus361gZhrUhqKPPU6qXqvI3/fPapYG+aTtObhg5v1nVkrR6g1urakt6Rt0bedcuoNP8WCjdnwlpx3EBLdYr261pdruVs0kl7wAmzqR4sz8JGrynacAIOtZRbTkio5VpZ4W+dhLZsqHJMSrbu2P6Psy2wsO+qVwYXKkkdkZyQOFrV+i5XN0L6pHETP2p90HqKH6WuDOu+t3u4FXaN1L9nWi0Ka3K3YXO6EEXqacuZJEwtH1HWPKgov9i54uuCZQGE/ZsFGlERkYk2dkS5EaXOcFbLsVDikWoSRFlKhw6/Bps/RG+ptJuk3uY8eVtQYSd6SlJKtpWXtZuBzWKo9UdZAp0OVGf77b1seesu8f93O4iXXHdz3vK7VkVZy4g132s5257tb6eelKwVRsmuQ1VpcadyPbLS09KH3/XgfUP7ZfYd506q1tl1e71wW9dPdEx0gj0d2NfWVj6C13V1wXLm6Nw8V92yvEGlj//61sZ35sybde61Xehg16Q2gou6Es2iuE3l6+dbArDbXGtfrwUXdkG0l3OB1EOqjuv+gwbkzNOv3unM57ZWMw0HnOn1c1nCXXFZSYvy9nVKqtZ8Onn9svpaca2Ar5TklOFW4lwLHgy4cBsLPPL4Dy+88Lzzlw3OGTjdWiWdktSyVMAf5ZzxyoO28zgvP3/Lo4//8LqvfeErz3VmO2fie+yyomtTrduKZMePHTP247Z82e/sWNJDmF0Hu6uVwB7Omls5t+/a8cSGzRtnz5o24+uBuhiDcA8U7DT/u9vSZ/GA/biBllNtNCSkbsO7m3725ob1v1CLcryaUJ1BABZcyEcFFy1JUwspsLAET0vwl12SLhIaMOAk4TsPkZpFel8Q+37GLNorgws9+IfOmHLOJzQx2eBDRw7n26RjKmpUpgTEmZqgbK4dUIrQLS4IV5ntiSoH/F8LLhSAJMZqOJ3lUtg3bC0X6n/UdHY1zt/t4FE9DOdmbc3d9mNPlLqIWV5FpE4OjeewfkEVwYrS7IMhtal2cJWoJoTTvaLHAVuHrcvuIHajdHIKrKVN1QwtuLArgBUw6uAIa1RLyrGEPvH+ZZlDZkyZ9o1X33htQIryNRQEjNIojn5ZmZkTNHdKtlotnJyRYF+2Xx+6/APfu3jehcessI0Cilh1h7xPTeXx7pTfdbX11dZlEey6vS5vQZIFbPoOqm14rm9eF69v7+rlnHxWd6V6Sq+Nuz/ue0rcnKx5Zy7suo05uQstXqqXUffbv/zhDTve9A9OcGFPXW5QYX+6yZz23woG48eNHvOxex5a+8T1V12zN9h9G5Qz8AIFFzY+39PL5uTJy8vb6L+wEnCLNE/EhpHDRlzgZSWaqTRV3YsfVYD8rEqWB9XNtvbRByZdOO+C5dlZ/c9zewB07lpNGmfTTcF2XZgZaYr54ZoA7n2qN/Pi0usXno5EO/8cJi80XbKMJV+6XWl2GTML98ndDTScxxAtpHyvDh9wWu1QoJu5/+K2bLP5shsXl8Y9FP9Af7WEDsrOsWC2q16e9sk/WdOOFTcXxf7bKjjroa3oxm9du62rdupsWk+vDC5sntv/vPLSAzZfh5I1Jw8ZOGiObsjhOoGSFDiE7dm/b68OnihdECt0EX2/5kWYZ60YqUmpE7IH5FygiprJdhCoq8LG6cfrvU4SoVWt08W9qctCRbksDCjVaA49ne234MTGMtvwP6tAoxzE6Pi4qGz9PU/Doe2G0Kjo12kJcQ8wTZiartlZ+xWXlebX1NWWW2uG5XzU1TtDF9t9aX8K1dt3XIsnOoGSXvqsmZZVbddRC2QsEFCd/gttv1rVDmga+2ELOn8qMPCdhk2zMzdPG+z8VgFRsrqXNPxVnf5KDFfXUYZF78pTUWtMn5qS8hKLyj3XQujEyaV+TJvORU9SIX2S5RrME1UnNhfcW26++oY9ulmt0cygw+XkaR6O9rZg43UUqDo5Jm0to8ni9tksuWrxcrrKLD3Bv4/X/ttt0rWLpo7lmWNHjvmUuubuWbVwWVMWqIeXCrqNmjll+lf1xO+5KVrVPF+/4ZvXtKiuqeCrYfTvR75mtUq8FtMap3yn3ft2/0e7+TMPu+osolLrYRNGj/+UzvNZOnv6KKB3fm83CDe4sL+biZlZEG9N2TrcuzrRzmsLoacbn9fP72U5Xd9sagO7GDgm5uDURNEpb8eN/a45oVOPXTrPA86e6mW7bSxzQgLoDVdds00lA+746If+59HY6I67Rzq5zXbfZkGWW6fCDMzCXOxHx2yI5S519TbPlvX1yuBCN6HQfplZ45QLkaukzJ88/98X7lVyWv+cfv3nZGZknpOpuUZUmjhcUalu6H0itXzCocMHDyg2SJo6YdJVsbFxCXYA6IYx4cJ58xer+8P6A23mU5se3Qk0rIyA6nCVWnluTR6Wrz+LdTCm2wlsg0Zt2GpMQlK65jFpUAuahqc6+RvO9+FLTgyzp/+4+Pi0otKS/Xr/IR3otdaNEajqpiWhFhwt2FReXlailpQaxTKVeluVNm1PJnZltSdfyyB0k63sMbfpguaLKvRvzoXV2nD8rohNPa7ys8/rXJB9yzWdEM4QSQuONHpDDayaZfloYeEWmw+lu04YG4Cgin5WT8RuGhoxcnK1G7pgP0+4MXzt8195ZuCzAx+56LzzFykQajMB0m1p8N++/+/cJDvrynW73lrv65H8vI3mbd1SztfkG7Hq34rhtmTYe21U1NxZc65V4Fq17M5bH1ESXcCn0bu+d++YC8+bv3DYkKHne7WyKp7bd+38R1vLH87LXZ+bn7dFkwd6eirVCJeUS86/aMUv/vDrGjWZ/0H73GHLwpI7VsROGD3ukypT/hl1BykLSgFXg5PR39yq49/0bftowupi2r70hlu8Ji16pfC6nOVWndIAw6491u1gN1ILMJq6P5pKxjhdAH4vn12EhuOHt5o8zOvn62i5Nj+3RmD97dXX1z1ywbnn3WgzLJzMhmwD/g9x/uuykXs2WaT9zm3pc//d6W5W0OXLvWisUMKQ1tWg4DxRwflpKVZ4Mg7d/d5eGVzoIAmfOG7CR1WoZYyqc+5T18g723fu+Pumre/+ueod9Z/ppp6VkTlCI0KmKKHoXJVnHRoVG5+ggy1awUO9im7t1Ql43Cpzjhk+6mN6grOZTTWRWYTmImmaP0R/jUnVqIlq9Svbk5ISOmu1XiWFWoHOsChrUrOXZatbTrGiBnuf01hgXSK2Bsu3sK4X3Zwrfvzrn+YpPyNMXSJWx6ujlgCLplNU9TM5TfkQlldhzQ/WAuGrFeA2SlgBL9WD9gswmvbb2bYbOdj+NP34NRA2TWbiBhg2SMX5uy/QsLua77htrNDokV9050FsrTDWUmLbsD/t7925vQDrbveGsOHdjb9UK9jM0cNHftDl9V+X6dpFy4KI95rq3wvrfMPdLM8n2rrb2toP3QxLxo0a89TokaMut64pdxn/pt3WQYy1aF02/+IVGpI9JvOHGT/JK8h/2/Ijbl9ya/NnUYXYMFV+7auZgy9R69eXB2UPPNc9Rr1YWyVcGyHV1rKqQLt9267tT8hmWqA+dddHuRdDPnTZ+9eu37RhetoP0n6uFsZdS65b2KI1Z8HKRWEZqgejUQTfGDNi9Ef0pN3f3u80Z/tulm6rnr+P7aOC8iNH8pxpvU/LS/sTbpMpPvr4D6psQm+/c805zP1+/P+uE9DSxJwWCD1/1FVZ7Qrr2z9WUrRn4bdvaJ48cNkdKxM0LH6srkVJ1qVo501WRtYEHTPOcWUu9tM6qHAxlPQaOaBfv2nWqvrDn//YovkQe6hSQLZH3XO5XYB2wnlkLWsJD9zzmOaEmjZi6PBL2zqHgtmuzSez9M5bQ1YuWNJiW75h7c6JZ0GWHRv+CdLuMaQGRHs2U/XmuJxhg4fMf/zXP3Ou3XqQcx7irC6Q5YHZ+83XWp2d4825djZfIO09/tdSh/+4CjcW6h6z8qalJcF8pp62bK8MLuzLtQcDHWBRyuYfaT+TFGxYQSoFGH99d/vWv2n68y2aEfVVxQCPWBOghhTOUKnZj6ry4iQloPXVYRJ65MiRg1t2bH1JN/PouOiYVOWHHVO1KZtddURacuogXQAf0FPh8aLi4mIdX7FOBrYubgpG0hMSEwfYcadIoVAXc8UeNf5dHc7BbSNR1CritJJYQKGWk+g+lRVVehLscH4FXSSSdFhHqYLdSUX4J3uw6mRS4lJTN1F3vZrO2KDG0XfXrrgX+jbXr1k596b8PHlt/779piqzPbv1Qm7LhO97dy5q7sWt1fA1p4WsvQ+xe//eZ3fv3fPC6BGjrmjrAtz6Rmrr0fGdqJycr00cO+ET+w7se3nLjm3/+NWffmsT4tltJjRLU6WPGTn6/WrRG2vHZDCAOrbL39m84efK/N/b1vtW3bysXknAv58wZvxHzKa9ddvX7FaItGU02qXvLNWemahWiQNHDr2mUupP2vlricQahp2RlZ41YfjQoRdbkrF1cZivffbWrTltbK9RZdxfVE0bd0KsYD5ulyyruYoSL5t/ySqtLKi5JvRd2fQCobrxOeXw9ZSt+2JEtK5j/4l4KPxadc/uVZ7MrAvnXrBELbSTbAJFmVqSeY1aKTS1QVS8W48hQECa/rEPfuT7fh/WOQkPHj74pppar7n261e/4f6bkue9dgW5b2n3fL7p29fv07X6Pj3sTdAot/6dxfbtUIjNGND62mG9jlbgsHlnfImtbneI+ViLji9JOnr6lGlfnTb5nM9ZOOb3VNXhtcBvv1vbOA+WCmCq39684Re63q9UEv6Rzn7O0/2+Xhlc+JoAW3+xoXqK6zfrnBlf05S+X1Ci2bY9+/a+smvv7mdy8/M3K+B4UnUn/qmkz746MYf179t3uupXTByQ1W+8ZQcrb8K6H+o1/0HR1u3bXlfPhJ3Ysc5U0ympOXaB05OEEyXrdxnnz567uKioeFduQd46tYTkN3WXtLxJ2k3ESovbe3STVu+JMwNoqSIRi2jdFogTjiGr5W/dMaf74LJRKTqBuzPfoq2PeEqbk4Mx3ndg//OvvPHa/RfNvWC5vqMW3SPWXWEXMGuhsBoD9nJviO6wQCfJrrbGklfbnflVN/Fdab9MfUjJypM07Nh/OHLAXdWxlqzicO/Xz/taLRzsDaL52qwaMn/fvG3rbzvauPZZo1wGPfSBS953t+1DW8vazc58zMKMfJUO7RzLVmtQttWeUW2BMrvI20ODzkXLvXGeHO3ldge5LTdtBVm2nDL3D2oEwO/VCnRam7l17gcVxPmb6ebn5B3ZZ7Vjpl9G31mZqekjFTDtUvLsB/WANE+/V0Fip5HVKgY3F1xzA1n/Fq7WVk7fp28+I//t6gFszrDBwy7S75qDi4AH3YkLdHj+7j904JnX337jsfNnz7tZjTqdyq/ybcAmGDxhsjCb7dFmL7WHFiuKZcGEez7arrq5J60C/k7tR3s2OlYjx4wY9WEF5X/QMgQXnTiITt9bmq437V0w7ckwWhH+JPuZMXXaZ5W/sG/PgX3P7T+4/6XDubmb9u7f94pN066adcrBjE6y0RYDs3PmqBtluhKPRuminqxOg8ji4pKivIKCt2vrDh3TEKSUWDUtx8cl9NPolJihg4bO6DOoj/Uzf1pjpfNVivmExCCLYnWhyLx++UIV8qqKUXASqmPebi4dBg56XolRU3GRXV86+Jzd7m9Nsso7Oe1BTrd/0Pc20GEryioVydHEdI/ZfDZTJkz6nHVZ+V+43Yx8uyFYk7RdwOy/7QJn/+0rH2x1TjpMvlTdkicznsq4+7ILLr5VF8Pm7pEgHDobTLTYhPIp3njupedXL7pmQcAb9aYtm36u4m45CrpvsvOv9b7aza4tn+ZgTJYabJVoNwL7XeskRHd97QUV9u8KXKpfe2vdgzv37P5nEFY9clE3ULVhx5bsrB6S6NuXrKr7wCVXhFuLhhVUc48z/2RNL04dfWCr49Dq37vkWHLXaTk2q9fe8dCAvv2nKgj+QGeub82dtm0Uh7WuautCVkuxJeBH2HFn558de/4J0q27F7v6ILAermAK1HX19rtifb2z5aJplKeng15NxvHZ/bPH6Wds1eRpnztaWHBQo0lefGfTxl9ruvWdGru/Z9F1N21XRvpLGiqXoWg4zgpSDVP/tJ4SLsvIyJiqguJRamoLU4GuCs1novfv3WxdbyoLPkLNfANVcyBRB64b/TYf+3biqHrj17TcaD1RHTlw6OA6i1f09OqMp26v31sdryE6N7xMTe3/lHBCE2GQB9gJnrrQl5SUlTT39Qa5Pq+Le/oeva7sJJcL2GqiJ+Li9B+lft+qoqrJfrTbv+2On3efzm0/3LkIWiTZKaNRdT0CZuq/+fabj6pyYfw83aw7GWCcDEWjyuS/+7ennlzwra98Y4OXFa1YsLT61ntvu8+Gm86Yeo5qGrzX/eJe4N0me2u98M8JcHysnocCMGuy7ihfoL190XtqrdDcq2+u+4GSFD2PnPHy2bprmdY5I+bituz4ylA3WVibqa/olZyspo7jZMvaTdNDV5HXj2DnYutuUDevwOs6bLkOz6NF19xkI6LuVJ7QRI3AGhTMip2VO0US62sUYJ3QZWtdz07XhOp+hGuksnV/uMGXfzK0x9tHsLvWYnnt5+nMHzupfbc398rgwndTDngjaBWdhkRrAjI9dSYpGWrc5HETP3ko9/DGXfv2/LP/w/c/c7SocHeZpqC+Y8kq6wbYrAziF1967ZW1aampQ1Qa+3w1Rc7WkNYRQwYOHq3AY0JNdfVxNfFt27Zrxz8UKVfHRMZkJCUnDtIcJP3VnxhvUas1PaqU9lD7sS9LB3xNnjLryzUKxZrt2j3AdVA2FXDpsOWiUQlYO/QZ1usi0zTc1Mqeq99Wq3aSP/UrOw/t3/TfVsu26cy0X9qBb8NPNfZ8jgKvWf5HorlZopimiD9UpqDopI/SwCsI+F0GXsVJL+HuQ8B9KThWuO719W/+UHUXlijITLSbpnujsBYLu+i7Q+CaesveS6f1DSUN2GS+fMGSiqV33Hq3jpna82ade6Pyb2zY6KkIxBoOHjn06t+f/ufCKz//1ReCUVVSZknY2jtXaC69OnVNXmldR1ZG2R06akYWcLnBhn8dhtbdH8FsV8dq2bq333j4uRf/c48SEguDeW8Qy3bmJtvu6ls/Odsx5FZhdY8luylqNLz9vlKDjJyRQO4BYF5tjQIJ4vO0t2jrPJHOfO6A59BVX/raSwMHZK+9dP4lq60Qodf9tvNJZefLNJ677K7la07YjlNIzHEKcYoXukO3va6/i5cL6NDF2+vS1fXS4MLpi+3wQut/8rpZ6k3DHZ0phy2aTVHS3Dz9nHd0yrSv7z+wf93u/XueW/v9B9YrA/6QjopqJXMWHj5yuEDTar+pRLMEq6uhIl3DswdkTx/Qt9+0rMysocOHDpuiC0ClhsVWaeTKYWudsOZZS9GwxE/rN1eSVLJKNSdbLoX1pXu7Sbw3EVE7R0zjm++s/9lLr738iD6Om0yqoMIpeKV0V5sJ1alz4ZtcuSnCcMp565xTYFGroRmR586c/X+q/z9DnGHuTdG9aCmD3M0P6dKDtr3P040b8XqSe0ouXXbDovo1a+/8jbrRpqoo1Mdl7pyH9jTp2rndIfZ7+507gsS+HxuN7OWzrrxpSdXyO1c9oOPqwJwZs7+pbj77nrrtnFfXXZFyk373soLqq//vqi1e9rH1Mrdcs6BQNisLjubvmKFJq5QYPSqkISTKji0LLMzCTl33nLT3u/kqnXiabFCX5+bX3nr9YVVS/aVGZXVndn5nbrLtErqf1e6F/vkk9ga3focbhOlRQRNg1NfctHKRRrQ1jSJqHZx05rtq4z1ez5Mu2dyGLZt+rVFGs8ePHvfxQNdEO17cYMF5eHKenU58OcO8NTBflXOcUien+XUqHga67SN224Wm2/a4C1bsa7lo/uL8TzT3v+3kdZ8A3Fr7dvF3s4bdJkgbbqTm7YFWIGncmHEf1tDnY6r2uUVdJ88pS/uFI7m5W/WcX6mLQIku8vZ/u7bt3vl0tApxKfciS0POhigCn6sKdOcoW36oKjlOtqd+BSilyu4+onVt3H/wwFG7Hljhrcz09HGaFTVbIw5sPobmehMtWHSjtweTQCecZl8tUiGjgiBJm29sS+9Y2WgVMd3uGTmppHmdlb+1dtgIzQxbonk2unW0SJD7HvTidhy01/3UemW+gNXTBVY30QPxj8V/TyOPJiUnJI216WL8Wy/sBuEmcvonjznj84O45GgqZ6u78su7H7pv3YSxEz4yZfykz6s+i5Xb7qorZ6NaFir37N37nCbj+8mO3bueWH7joqCqZ7YRYBTfuHzh93fv37du2qSpnx4+eNjlqkOTo8DCKWlvF33z8c9NCTKwaND5dUAJ2r98e+M7v7GEbc2B0d1N0DbLRFBz7AQKAJwEXw1xtxE8bmCq889p1DQnM7Fmff1dKV2RiVaoTBVhnJFGQXp5Pm+sVdN/YXP913P/9vx+67C2a52XN9zynQW5qY+nPmzDaH3HdJtv8x+JpbL1duxEW3XWthZWK0hEtKYUaK8Ohpf96oplvF5zumJb3bWOXhlc2Enu/+W5gYTvRuJYu8Pe3HkZ3L5MvyIq703mo+V9fZzWR5elcfhZGot9XvnxmQVKAN2oGgd/0PC215VzkaebyHGdPg0aoleUf/RooX42b9m+7d8q2pWUkJCYpmFWY0Ypo1u1BKZpTPcYdaNM1sW7urz8eGHp8bKC/Pz8DZu2bP5dpKZf12iVkep3nKIgJVPN3jb3iDWX23zIMda4EuigUUfHSY3ksDH4dtGyYEjbjrHsal3wQm0YnE7gMLVceMn7CLSbwf67pwuT15Uqw36HRgIV2fDGNt7jv63G4pKSnTaVgNd16+n+vylJScsvPv+iRZrxc7BagqwEoDNHqP906f7rq6ysKtRcN4e8bsNd7oarrt2prrq7NGHdX0YMGX7h5PET/zcjPX2MHTd2zPh+vK7WZuKoteB338EDL761cf2vDx0+/Nri6262ILhLXnctv81s31xx9+ptb6x/86dDBw05V9U5/2eAclVsBJWOLxuO5XVbzvekc7rMimNt3vbuH9TC8lRh4dGNK1Wi3etKTmY5nROlx4qP7UhPa+ri9PJqLwBQAT5dQzRLnxK3dd2psG5N/cQpeIisqqwqtQJceiXYMhaI1TXUl1urkq571flH89/WvpS3VyvFy361t4xyGIry8nPfbv3vMt9ikzsqf+2EpPVWyzYUFh/bumLB4oDF3Nz3ff0LX30+5S/Jt11x4WW3qTvZHriaQ29di2p0TllkpUkkI6qdycTq661UgOoaHm/zWFWRterikuIdWo8FSW2dF63z1Nri8HoNav2Y0Pw+1SbZJbcWFW1P5rs5He/tlcGFFY5y6kz6Xm5ka02ubrO028TvZur7qrI5T5N24Xezrf1bOvy/QIt8NRFaX/sZPWLkxRpuelBPdU/v2rvraRXt2qRAo1DrtuQqK9NdXamz/3hF3r7cvLw39TT127i42Ex1N0zQ5FKW0zCzb2bmqOy+/ccN7J890baj9e1R3/br23fv+JPWU61ulyQFNaMUaORE2AShTcWx3IO1zWddfZaTq0CotkWrAWJNiXbi6uIWrj+c+VCUpV6vvJKAowROx0EfzDZ379v7jz/9/a9XqiDZcAVs/o7NFwI7llTu/NgOVRFU03pQtQk+94nP/O7hHz+6LzM9c7QNrdN1MM6Z2M7JeLH+KSfXxbblHLFqxn9XLVkvBfMZ3GVViMjWY/MgbNOkaj/tn9VvirrZJmRkpI9SLtFo1Y7I1JNbc6VY/23YhVpDoEuLS4v3awTUu9qPbdqPN4pKinfbLLCd2R8v71EXks2AakmhGzQT6+NDBw89VwWcJinvaXSKisTFxcSkWW5SU6uAPfU2NXfbE7QOweqKqsrCwmOFO/Ly8jfnFuRuVjD0mlUMvX3xe0XCvOzHyS6z6NqbDipxe9mOXTuf1qiWSOti9J2fbd2IbBJEPSOEKFCvs7p5NTbiw9eX26hLhVUOtm60OMuJ0hdj15Ewm8BPy6puRV2FPZ2rQJ/VyAnJLyjYqIebfy27cVHjrffc9tjxisp8BbPDLALx24cWgbLv8/rfXFtfQ9wWhqZ16G+FhYU7P//Jz/61tZXOiz/94W9/0ZwtyUNadUa423QmHFRF5EIVVDvh/YHsP/nhj/3s0Z/+8IDNmWTdPr5SAzaEtNyuRbpex6pyYYRyLXQ9arRWq/2qZtvmOaTjrS76/nvuP3qscKdyp9N835N9V219X65Pe8G5+/naCzZOCC7sWqITvt7Oreu/8Z0zes6SIBpYA33FZ86/r77vjpyvfe7LT1m2vu21BQ4WLNjLnhasFcKCDPud/d2t0ObWHXAz0t1M60DNl/4yOvmP68DdpYqFr6jg0X8OHz68SQf7Ed2ey25bfGtzc7KKz0RaxrIVw9Jw19SkpKSsvhlZo/v36zfVmtL13+NtSnM7sXVjKy0pLT6sKa0PaTTKPo1VPWrJnxq1MlzdJwM0t8UgzVOlicWcp2L3RGj4/RN//NzHP/TRX3b2m9M+hn3ywx/9pY2d1+eyVgxnxItdDOVX8fQLzy7+4GXvf7Cz6/fyvjseuGfgFz/12b/r5jzWns6+++iDMzWfx04v7+2py6iFwcbXqx57U1hxx9JVXp+EOvWRtL1w3YnsKTjGRmnYjarlipyKjeq3b1AjfG2FzSa6ZtGK09rdtezOVeoWj4zXTSNGg7/0kHTiQ6DCMntSrdRTc7laLer8q452CuoUv0nltUM0cqVbv3svH+mmlYubcbv7WPSyPyxzZgj0ypYLp0vEL5/T7et2gwt36JEFGLo4NVouge/frLzuCfMSBPNVW3OkgoOJ9jN1wuT/VVPpPuVnvLBrz+6nVAPhv3rSKrLgVX2VbqtCpW7iud/5v29aU/hb+vmlxnlnJiUkDVQhrwk5/bOn62emkkMnqu/R+tJDdPEvLa8oz1Prxm4FMpvVwvGydV1YVUN1u0xV3sYIJYimWNN2MPveelmbGl65Jv2t2Jf19foSrZ3FrIyuPTWezPo7+d7TfjHu5H43v83XwnDKPoe2Z1051oV1OrqxOsWlpnM7dot8P51aR09/U08ILMyIgKKnHyk9c/96bXChULw5Gnezza1LzpKh9GPFqpwWDMss1k24zhIULejwzyAOpsWira/fJibTzX68fsaphOwXixUMbN625W8qKf6Emi93qUWizJ4YFWi0CAJsnLfWZz9v6KnzV9Z8l5ycPEh96fOV63GJtVhoqnjnx7Zr3S/qYyw4Vly8Vy0mL6/fuP7P6kJJV5/e4VtWL1XBohB7Eg2+aVujHOLi4tItqdUNxOxPfS4ljamZU5O19czDnr1CAAEEEOhOgd4aXFghNvvsztOhBQy+xM0a3Yht0p8wZ6ou9XkquzjaAg5fAmiLp8k2Eq46etpsN3nH9sG6LDRyZNwFmr9BM1VerSGpb6v0+It7D+x/9ra1d65feM2CNkd16KnT+nOsVcN+/rv4tuXfVXfPSA11HZfTP+ec7AEDZqhk+VAbzWI/mnb6PNuejWjJSE0frTLn7+bm52564IcP79YUKNuWXL/Qc0VNteo02AyCvkncnLHmrokCo3Irhd6dBy/rRgABBBDomQK9MrhQ4FC7e9+eZ+LjE97VMNF6J1HKUsGUtFOlOTl0z9TwLpVni4yMt4mQnGoP9j/KrusgevDajO0GGW0lAzm/sz5vJfdFDxyQM0VD8FJz83IH/PhXP3vuS5/+3N5Ah5FKTFsCnHWfvKU+299Yq0ZmRsYoJe9NsAl/4mJjM21HlS1mw9ei1aVivx+lSZ9yD+UeWff4b36+Q9UVX7nhqmsCtmRYy45KoT+r7pb+ateJlWFoU+ahZpY8Xn5YwUV3V+cMxMG/I4AAAgicBoFeGVzc/J0b9tXcveYm3cbtXlhrXSS6UYZr4JbyIBuqNfTTJq1RurZNHtRos9TVWzXK1mO4fffR1kFF67+3lWXtftX+Y7rdbGSrP2AJdRE2FttaTPRTu+jaBSXBHh/qs7W8DauQaT/PL79ztX0oS7psni69aRsattoUYdXr75W3XHNjwMDC9sVaOcLWhmkCoXBlsvcJMybrQ7IJAhWO1ajiIi0XwX5pLI8AAggggAACp1fARovkFeRtssDPhrLdfv/dw07vHrF1BBBAAIGuqtKHJAI9RaBXDq/uKfjsBwIIIGACBBccBwgggAACCCDQpQIEF13KycpOg4DXRNrTsGtsEgEEEOidAgQXvfN751MjgAACCCDQbQIEF91Gy4oRQAABBBDonQIEF73zez+bPjXdImfTt8lnQQCBs0KA4OKs+Br5EAgggAACCPQcAYKLnvNdsCedF6D1ovN2vBMBBBDocgGCiy4nZYUIIIAAAgj0bgGCi979/Z9Vn96mfveb7Pas+mx8GAQQQOBMEiC4OJO+Lfa1LYHmLpFwZ46TEJuXhRcCCCCAwGkUILg4jfhsussE/HMuyL/oMlZWhAACCHROgOCic268q2cKNKrlomfuGXuFAAII9CIBgote9GWfpR+1RUtFRHi4TSnPCwEEEEDgNAoQXJxGfDbdJQL1aq2w5gprtQjtE9KHnIsuYWUlCCCAQOcFCC46b8c7e4BAfX1DWWHRsR2NDQ21h3OPvFVeXp7fA3aLXUAAAQR6tQAd1L366z87Pvx3H3toXEZq2vj8o/lbrrny2xvOjk/Fp0AAAQQQQAABBBBAAAEEEEAAAQQQQAABBBBAAAEEEEAAAQQQQAABBBBAAAEEEEAAAQQQQAABBBBAAAEEEEAAAQQQQAABBBBAAAEEEEAAAQQQQAABBBBAAAEEEEAAAQQQQAABBBBAAAEEEEAAAQQQQAABBBBAAAEEEEAAAQQQQAABBBBAAAEEEEAAAQQQQAABBBBAAAEEEEAAAQQQQAABBBBAAAEEEEAAAQQQQAABBBBAAAEEEEAAAQQQQAABBBBAAAEEEEAAAQQQQAABBBBAAAEEEEAAAQQQQAABBBBAAAEEEEAAAQQQQAABBBBAAAEEEEAAAQQQQAABBBBAAAEEEEAAAQQQQAABBBBAAAEEEEAAAQQQQAABBBBAAAEEEEAAAQQQQAABBBBAAAEEEEAAAQQQQAABBBBAAAEEEEAAAQQQQAABBBBAAAEEEEAAAQQQQAABBBBAAAEEEEAAAQQQQAABBBBAAAEEEEAAAQQQQAABBBBAAAEEEEAAAQQQQAABBBBAAAEEEEAAAQQQQAABBBBAAAEEEEAAAQQQQAABBBBAAAEEEEAAAQQQQAABBBBAAAEEEEAAAQQQQAABBBBAAAEEEEAAAQQQQAABBBBAAAEEEEAAAQQQQAABBBBAAAEEEEAAAQQQQAABBBBAAAEEEEAAAQQQQAABBBBAAAEEEEAAAQQQQAABBBBAAAEEEEAAAQQQQAABBBBAAAEEEEAAAQQQQAABBBBAAAEEEEAAAQQQQAABBBBAAAEEEEAAAQQQQAABBBBAAAEEEEAAAQQQQAABBBBAAAEEEEAAAQQQQAABBBBAAAEEEEAAAQQQQAABBBBAAAEEEEAAAQQQQAABBBBAAAEEEEAAAQQQQAABBBBAAAEEEEAAAQQQQAABBBBAAAEEEEAAAQQQQAABBBBAAAEEEEAAAQQQQAABBBBAAAEEEEAAAQQQQAABBBBAAAEEEEAAAQQQQAABBBBAAAEEEEAAAQQQQAABBBBAAAEEEEAAAQQQQAABBBBAAAEEEEAAAQQQQAABBBBAAAEEEEAAAQQQQAABBBBAAAEEEEAAAQQQQAABBBBAAAEEEEAAAQQQQAABBBBAAAEEEEAAAQQQQAABBBBAAAEEEEAAAQQQQAABBBBAAAEEEEAAAQQQQAABBBBAAAEEEEAAAQQQQAABBBBAAAEEEEAAAQQQQAABBBBAAAEEEEAAAQQQQAABBBBAAAEEEEAAAQQQQAABBBBAAAEEEEAAAQQQQAABBBBAAAEEEEAAAQQQQAABBBBAAAEEEEAAAQQQQAABBBBAAAEEEEAAAQQQQAABBBBAAAEEEEAAAQQQQAABBBBAAAEEEEAAAQQQQAABBBBAAAEEEEAAAQQQQAABBBBAAAEEEEAAAQQQQAABBBBAAAEEEEAAAQQQQAABBBBAAAEEEEAAAQQQQAABBBBAAAEEEEAAAQQQQAABBBBAAAEEEEAAAQQQQAABBBBAAAEEEEAAAQQQQAABBBBAAAEEEEAAAQQQQAABBBBAAAEEEEAAAQQQQAABBBBAAAEEEEAAAQQQQAABBBBAAAEEEEAAAQQQQAABBBBAAAEEEEAAAQQQQAABBBBAAAEEEEAAAQQQQAABBBBAAAEEEEAAAQQQQAABBBBAAAEEEEAAAQQQQAABBBBAAAEEEEAAAQQQQAABBBBAAAEEEEAAAQQQQAABBBBAAAEEEEAAAQQQQAABBBBAAAEEEEAAAQQQQAABBBBAAAEEEEAAAQQQQAABBBBAAAEEEEAAAQQQQAABBBBAAAEEEEAAAQQQQAABBBBAAAEEEEAAAQQQQAABBBBAAAEEEEAAAQQQQAABBBBAAAEEEEAAAQQQQAABBBBAAAEEEEAAAQQQQAABBBBAAAEEEEAAAQQQQAABBBBAAAEEEEAAAQQQQAABBBBAAAEEEEAAAQQQQAABBBBAAAEEEEAAAQQQQAABBBBAAAEEEEAAAQQQQAABBBBAAAEEEEAAAQQQQAABBBBAAAEEEEAAAQQQQAABBBBAAAEEEEAAAQQQQAABBBBAAAEEEEAAAQQQQAABBBBAAAEEEEAAAQQQQAABBBBAAAEEEEAAAQQQQAABBBBAAAEEEEAAAQQQQAABBBBAAAEEEEAAAQQQQAABBBBAAAEEEEAAAQQQQAABBBBAAAEEEEAAAQQQQAABBBBAAAEEEEAAAQQQQAABBBBAAAEEEEAAAQQQQAABBBBAAAEEEEAAAQQQQAABBM4Sgf8PCTmY7G5ew70AAAAASUVORK5CYII=;fillColor=#FFFFFF;container=0;" parent="Men9GjwN1sTNMA3EWKFs-31" vertex="1">
          <mxGeometry x="9.680000000000001" width="130.63" height="113.77" as="geometry" />
        </mxCell>
        <mxCell id="Men9GjwN1sTNMA3EWKFs-5" style="edgeStyle=orthogonalEdgeStyle;rounded=0;orthogonalLoop=1;jettySize=auto;html=1;exitX=0.5;exitY=1;exitDx=0;exitDy=0;entryX=0.5;entryY=0;entryDx=0;entryDy=0;" edge="1" parent="1" source="NhT25dJwAbogH1QGbK4u-50" target="dNxyNK7c78bLwvsdeMH5-24">
          <mxGeometry relative="1" as="geometry" />
        </mxCell>
        <mxCell id="Men9GjwN1sTNMA3EWKFs-13" style="edgeStyle=orthogonalEdgeStyle;rounded=0;orthogonalLoop=1;jettySize=auto;html=1;exitX=0.75;exitY=1;exitDx=0;exitDy=0;entryX=0.75;entryY=0;entryDx=0;entryDy=0;" edge="1" parent="1" source="Men9GjwN1sTNMA3EWKFs-9" target="NhT25dJwAbogH1QGbK4u-13">
          <mxGeometry relative="1" as="geometry" />
        </mxCell>
        <mxCell id="Men9GjwN1sTNMA3EWKFs-17" style="edgeStyle=orthogonalEdgeStyle;rounded=0;orthogonalLoop=1;jettySize=auto;html=1;exitX=0.5;exitY=1;exitDx=0;exitDy=0;entryX=0.5;entryY=0;entryDx=0;entryDy=0;" edge="1" parent="1" source="NhT25dJwAbogH1QGbK4u-16" target="NhT25dJwAbogH1QGbK4u-24">
          <mxGeometry relative="1" as="geometry" />
        </mxCell>
        <mxCell id="NhT25dJwAbogH1QGbK4u-45" style="edgeStyle=orthogonalEdgeStyle;rounded=0;orthogonalLoop=1;jettySize=auto;html=1;entryX=0.5;entryY=1;entryDx=0;entryDy=0;exitX=0.5;exitY=1;exitDx=0;exitDy=0;" parent="1" target="NhT25dJwAbogH1QGbK4u-46" edge="1" source="NhT25dJwAbogH1QGbK4u-42">
          <mxGeometry relative="1" as="geometry">
            <mxPoint x="850" y="530" as="targetPoint" />
            <mxPoint x="230" y="779" as="sourcePoint" />
            <Array as="points">
              <mxPoint x="350" y="780" />
              <mxPoint x="1130" y="780" />
            </Array>
          </mxGeometry>
        </mxCell>
        <mxCell id="Men9GjwN1sTNMA3EWKFs-27" style="edgeStyle=orthogonalEdgeStyle;rounded=0;orthogonalLoop=1;jettySize=auto;html=1;exitX=0.5;exitY=0;exitDx=0;exitDy=0;entryX=0.5;entryY=1;entryDx=0;entryDy=0;" edge="1" parent="1" source="Men9GjwN1sTNMA3EWKFs-23" target="NhT25dJwAbogH1QGbK4u-62">
          <mxGeometry relative="1" as="geometry" />
        </mxCell>
        <mxCell id="Men9GjwN1sTNMA3EWKFs-30" style="edgeStyle=orthogonalEdgeStyle;rounded=0;orthogonalLoop=1;jettySize=auto;html=1;exitX=0.25;exitY=0;exitDx=0;exitDy=0;entryX=0.25;entryY=1;entryDx=0;entryDy=0;" edge="1" parent="1" source="NhT25dJwAbogH1QGbK4u-13" target="Men9GjwN1sTNMA3EWKFs-9">
          <mxGeometry relative="1" as="geometry" />
        </mxCell>
      </root>
    </mxGraphModel>
  </diagram>
</mxfile>
